<mxfile host="65bd71144e">
    <diagram id="k1vN1OMUm8JOYMai5HOW" name="第 1 页">
        <mxGraphModel dx="1414" dy="666" grid="1" gridSize="10" guides="1" tooltips="1" connect="1" arrows="1" fold="1" page="1" pageScale="1" pageWidth="3300" pageHeight="4681" math="0" shadow="0">
            <root>
                <mxCell id="0"/>
                <mxCell id="1" parent="0"/>
                <mxCell id="9" style="edgeStyle=none;html=1;entryX=0.5;entryY=1;entryDx=0;entryDy=0;fontSize=11;" edge="1" parent="1" target="35">
                    <mxGeometry relative="1" as="geometry">
                        <mxPoint x="180" y="275" as="sourcePoint"/>
                        <mxPoint x="360.0812932590554" y="19.536313482836704" as="targetPoint"/>
                    </mxGeometry>
                </mxCell>
                <mxCell id="12" style="edgeStyle=none;html=1;fontSize=11;entryX=0;entryY=1;entryDx=0;entryDy=0;" edge="1" parent="1" target="36">
                    <mxGeometry relative="1" as="geometry">
                        <mxPoint x="180" y="275" as="sourcePoint"/>
                        <mxPoint x="417.0241570539613" y="122.62732760816777" as="targetPoint"/>
                    </mxGeometry>
                </mxCell>
                <mxCell id="14" value="" style="edgeStyle=none;html=1;fontSize=11;entryX=0;entryY=0.5;entryDx=0;entryDy=0;" edge="1" parent="1" target="37">
                    <mxGeometry relative="1" as="geometry">
                        <mxPoint x="180" y="275" as="sourcePoint"/>
                        <mxPoint x="390" y="195" as="targetPoint"/>
                    </mxGeometry>
                </mxCell>
                <mxCell id="22" style="edgeStyle=none;html=1;entryX=0;entryY=0;entryDx=0;entryDy=0;fontSize=11;" edge="1" parent="1">
                    <mxGeometry relative="1" as="geometry">
                        <mxPoint x="180" y="280" as="sourcePoint"/>
                        <mxPoint x="420.08129325906407" y="315.46368651716693" as="targetPoint"/>
                    </mxGeometry>
                </mxCell>
                <mxCell id="50" style="edgeStyle=none;html=1;entryX=0.5;entryY=0;entryDx=0;entryDy=0;fontSize=11;" edge="1" parent="1" target="23">
                    <mxGeometry relative="1" as="geometry">
                        <mxPoint x="180" y="275" as="sourcePoint"/>
                    </mxGeometry>
                </mxCell>
                <mxCell id="51" style="edgeStyle=none;html=1;entryX=0.5;entryY=0;entryDx=0;entryDy=0;fontSize=11;" edge="1" parent="1" target="48">
                    <mxGeometry relative="1" as="geometry">
                        <mxPoint x="180" y="275" as="sourcePoint"/>
                    </mxGeometry>
                </mxCell>
                <mxCell id="52" style="edgeStyle=none;html=1;fontSize=11;" edge="1" parent="1" target="49">
                    <mxGeometry relative="1" as="geometry">
                        <mxPoint x="180" y="275" as="sourcePoint"/>
                    </mxGeometry>
                </mxCell>
                <mxCell id="2" value="用户" style="shape=umlActor;verticalLabelPosition=bottom;verticalAlign=top;html=1;" vertex="1" parent="1">
                    <mxGeometry x="150" y="245" width="30" height="60" as="geometry"/>
                </mxCell>
                <mxCell id="7" value="&amp;lt;&amp;lt;extend&amp;gt;&amp;gt;" style="edgeStyle=none;html=1;fontSize=11;spacingTop=-16;" edge="1" parent="1">
                    <mxGeometry relative="1" as="geometry">
                        <mxPoint x="630" y="175" as="sourcePoint"/>
                        <mxPoint x="530" y="175" as="targetPoint"/>
                        <Array as="points">
                            <mxPoint x="590" y="175"/>
                        </Array>
                    </mxGeometry>
                </mxCell>
                <mxCell id="19" value="&amp;lt;&amp;lt;include&amp;gt;&amp;gt;" style="edgeStyle=none;html=1;exitX=0.5;exitY=0;exitDx=0;exitDy=0;entryX=0;entryY=0.5;entryDx=0;entryDy=0;fontSize=11;" edge="1" parent="1" target="39">
                    <mxGeometry relative="1" as="geometry">
                        <mxPoint x="470" y="305" as="sourcePoint"/>
                        <mxPoint x="560" y="210" as="targetPoint"/>
                    </mxGeometry>
                </mxCell>
                <mxCell id="20" value="&amp;lt;&amp;lt;include&amp;gt;&amp;gt;" style="edgeStyle=none;html=1;exitX=1;exitY=0.5;exitDx=0;exitDy=0;fontSize=11;spacingTop=-16;" edge="1" parent="1" source="38" target="17">
                    <mxGeometry relative="1" as="geometry">
                        <mxPoint x="519.9187067409359" y="315.46368651716693" as="sourcePoint"/>
                        <mxPoint x="680" y="280" as="targetPoint"/>
                    </mxGeometry>
                </mxCell>
                <mxCell id="21" value="&amp;lt;&amp;lt;include&amp;gt;&amp;gt;" style="edgeStyle=none;html=1;exitX=1;exitY=1;exitDx=0;exitDy=0;entryX=0;entryY=0.5;entryDx=0;entryDy=0;fontSize=11;" edge="1" parent="1" source="38" target="18">
                    <mxGeometry relative="1" as="geometry">
                        <mxPoint x="519.9187067409359" y="364.53631348283284" as="sourcePoint"/>
                        <mxPoint x="680" y="360" as="targetPoint"/>
                    </mxGeometry>
                </mxCell>
                <mxCell id="26" style="edgeStyle=none;html=1;exitX=0.5;exitY=1;exitDx=0;exitDy=0;entryX=0;entryY=0;entryDx=0;entryDy=0;fontSize=11;" edge="1" parent="1" target="25">
                    <mxGeometry relative="1" as="geometry">
                        <mxPoint x="470" y="375" as="sourcePoint"/>
                        <mxPoint x="580.0812932590597" y="405.4636865171649" as="targetPoint"/>
                    </mxGeometry>
                </mxCell>
                <mxCell id="27" value="&amp;lt;&amp;lt;include&amp;gt;&amp;gt;" style="edgeLabel;html=1;align=center;verticalAlign=middle;resizable=0;points=[];fontSize=11;" vertex="1" connectable="0" parent="26">
                    <mxGeometry x="0.1168" relative="1" as="geometry">
                        <mxPoint as="offset"/>
                    </mxGeometry>
                </mxCell>
                <mxCell id="31" value="" style="edgeStyle=none;html=1;fontSize=11;" edge="1" parent="1" source="16" target="30">
                    <mxGeometry relative="1" as="geometry"/>
                </mxCell>
                <mxCell id="32" value="&amp;lt;&amp;lt;include&amp;gt;&amp;gt;" style="edgeLabel;html=1;align=center;verticalAlign=middle;resizable=0;points=[];fontSize=11;spacingTop=-16;" vertex="1" connectable="0" parent="31">
                    <mxGeometry x="-0.2444" y="2" relative="1" as="geometry">
                        <mxPoint as="offset"/>
                    </mxGeometry>
                </mxCell>
                <mxCell id="16" value="添加好友" style="ellipse;whiteSpace=wrap;html=1;fontSize=11;" vertex="1" parent="1">
                    <mxGeometry x="550" y="230" width="140" height="70" as="geometry"/>
                </mxCell>
                <mxCell id="17" value="删除好友" style="ellipse;whiteSpace=wrap;html=1;fontSize=11;" vertex="1" parent="1">
                    <mxGeometry x="670" y="300" width="140" height="70" as="geometry"/>
                </mxCell>
                <mxCell id="18" value="好友备注" style="ellipse;whiteSpace=wrap;html=1;fontSize=11;" vertex="1" parent="1">
                    <mxGeometry x="670" y="380" width="140" height="70" as="geometry"/>
                </mxCell>
                <mxCell id="42" value="&amp;lt;&amp;lt;include&amp;gt;&amp;gt;" style="edgeStyle=none;html=1;exitX=0;exitY=1;exitDx=0;exitDy=0;entryX=1;entryY=0;entryDx=0;entryDy=0;fontSize=11;" edge="1" parent="1" source="23" target="33">
                    <mxGeometry relative="1" as="geometry"/>
                </mxCell>
                <mxCell id="44" value="&amp;lt;&amp;lt;include&amp;gt;&amp;gt;" style="edgeStyle=none;html=1;exitX=0.5;exitY=1;exitDx=0;exitDy=0;entryX=0.5;entryY=0;entryDx=0;entryDy=0;fontSize=11;" edge="1" parent="1" source="23" target="29">
                    <mxGeometry relative="1" as="geometry"/>
                </mxCell>
                <mxCell id="45" value="&amp;lt;&amp;lt;include&amp;gt;&amp;gt;" style="edgeStyle=none;html=1;exitX=1;exitY=1;exitDx=0;exitDy=0;fontSize=11;" edge="1" parent="1" source="23" target="28">
                    <mxGeometry relative="1" as="geometry"/>
                </mxCell>
                <mxCell id="46" value="&amp;lt;&amp;lt;include&amp;gt;&amp;gt;" style="edgeStyle=none;html=1;exitX=1;exitY=0.5;exitDx=0;exitDy=0;entryX=-0.014;entryY=0.377;entryDx=0;entryDy=0;fontSize=11;entryPerimeter=0;" edge="1" parent="1" source="23" target="24">
                    <mxGeometry relative="1" as="geometry"/>
                </mxCell>
                <mxCell id="23" value="群聊管理" style="ellipse;whiteSpace=wrap;html=1;fontSize=11;" vertex="1" parent="1">
                    <mxGeometry x="390" y="480" width="140" height="70" as="geometry"/>
                </mxCell>
                <mxCell id="24" value="创建群聊" style="ellipse;whiteSpace=wrap;html=1;fontSize=11;" vertex="1" parent="1">
                    <mxGeometry x="630" y="510" width="140" height="70" as="geometry"/>
                </mxCell>
                <mxCell id="25" value="好友分组" style="ellipse;whiteSpace=wrap;html=1;fontSize=11;" vertex="1" parent="1">
                    <mxGeometry x="560" y="440" width="140" height="70" as="geometry"/>
                </mxCell>
                <mxCell id="28" value="退出群聊" style="ellipse;whiteSpace=wrap;html=1;fontSize=11;" vertex="1" parent="1">
                    <mxGeometry x="560" y="590" width="140" height="70" as="geometry"/>
                </mxCell>
                <mxCell id="29" value="查看在线成员" style="ellipse;whiteSpace=wrap;html=1;fontSize=11;" vertex="1" parent="1">
                    <mxGeometry x="420" y="620" width="140" height="70" as="geometry"/>
                </mxCell>
                <mxCell id="30" value="搜索用户" style="ellipse;whiteSpace=wrap;html=1;fontSize=11;" vertex="1" parent="1">
                    <mxGeometry x="780" y="230" width="140" height="70" as="geometry"/>
                </mxCell>
                <mxCell id="47" value="&amp;lt;&amp;lt;include&amp;gt;&amp;gt;" style="edgeStyle=none;html=1;exitX=0;exitY=1;exitDx=0;exitDy=0;entryX=0.5;entryY=0;entryDx=0;entryDy=0;fontSize=11;" edge="1" parent="1" source="33" target="34">
                    <mxGeometry relative="1" as="geometry"/>
                </mxCell>
                <mxCell id="33" value="申请入群" style="ellipse;whiteSpace=wrap;html=1;fontSize=11;" vertex="1" parent="1">
                    <mxGeometry x="270" y="580" width="140" height="70" as="geometry"/>
                </mxCell>
                <mxCell id="34" value="搜索群聊" style="ellipse;whiteSpace=wrap;html=1;fontSize=11;" vertex="1" parent="1">
                    <mxGeometry x="150" y="670" width="140" height="70" as="geometry"/>
                </mxCell>
                <mxCell id="35" value="注册" style="ellipse;whiteSpace=wrap;html=1;" vertex="1" parent="1">
                    <mxGeometry x="170" y="20" width="140" height="70" as="geometry"/>
                </mxCell>
                <mxCell id="36" value="登录" style="ellipse;whiteSpace=wrap;html=1;fontSize=11;" vertex="1" parent="1">
                    <mxGeometry x="320" y="60" width="140" height="70" as="geometry"/>
                </mxCell>
                <mxCell id="37" value="个人信息维护" style="ellipse;whiteSpace=wrap;html=1;" vertex="1" parent="1">
                    <mxGeometry x="390" y="140" width="140" height="70" as="geometry"/>
                </mxCell>
                <mxCell id="38" value="好友管理" style="ellipse;whiteSpace=wrap;html=1;fontSize=11;" vertex="1" parent="1">
                    <mxGeometry x="400" y="305" width="140" height="70" as="geometry"/>
                </mxCell>
                <mxCell id="39" value="添加好友" style="ellipse;whiteSpace=wrap;html=1;fontSize=11;" vertex="1" parent="1">
                    <mxGeometry x="550" y="230" width="140" height="70" as="geometry"/>
                </mxCell>
                <mxCell id="40" value="密码修改" style="ellipse;whiteSpace=wrap;html=1;" vertex="1" parent="1">
                    <mxGeometry x="630" y="140" width="140" height="70" as="geometry"/>
                </mxCell>
                <mxCell id="41" value="搜索用户" style="ellipse;whiteSpace=wrap;html=1;fontSize=11;" vertex="1" parent="1">
                    <mxGeometry x="780" y="230" width="140" height="70" as="geometry"/>
                </mxCell>
                <mxCell id="48" value="私聊" style="ellipse;whiteSpace=wrap;html=1;fontSize=11;" vertex="1" parent="1">
                    <mxGeometry x="40" y="490" width="140" height="70" as="geometry"/>
                </mxCell>
                <mxCell id="49" value="群聊" style="ellipse;whiteSpace=wrap;html=1;fontSize=11;" vertex="1" parent="1">
                    <mxGeometry x="210" y="490" width="140" height="70" as="geometry"/>
                </mxCell>
            </root>
        </mxGraphModel>
    </diagram>
</mxfile>